<svg width="558" height="387" viewBox="0 0 558 387" fill="none" xmlns="http://www.w3.org/2000/svg">
<path d="M122.683 364.507L124.315 382.874L110.338 371.112C111.309 368.14 115.138 362.659 122.683 364.507Z" fill="#0B94C0"/>
<line x1="33.6357" y1="212.91" x2="117.933" y2="370.467" stroke="#0B94C0" stroke-width="4"/>
<path d="M27 22.9676L34.2258 6.00003L41 22.9676C38.7419 25.1302 32.7806 28.1577 27 22.9676Z" fill="#0B94C0"/>
<line x1="34" y1="216" x2="34" y2="23" stroke="#0B94C0" stroke-width="4"/>
<path d="M513.149 202.568L530.114 209.794L513.149 216.568C510.987 214.31 507.96 208.349 513.149 202.568Z" fill="#0B94C0"/>
<line x1="34.3303" y1="212.967" x2="524.988" y2="210" stroke="#0B94C0" stroke-width="4"/>
<line x1="56.5" y1="211" x2="56.5" y2="51" stroke="#0B94C0"/>
<line x1="158.069" y1="211" x2="158.069" y2="51" stroke="#0B94C0"/>
<line x1="77.069" y1="211" x2="77.069" y2="51" stroke="#0B94C0"/>
<line x1="178.069" y1="211" x2="178.069" y2="51" stroke="#0B94C0"/>
<line x1="97.069" y1="211" x2="97.069" y2="51" stroke="#0B94C0"/>
<line x1="198.069" y1="211" x2="198.069" y2="51" stroke="#0B94C0"/>
<line x1="117.069" y1="211" x2="117.069" y2="51" stroke="#0B94C0"/>
<line x1="219.069" y1="211" x2="219.069" y2="51" stroke="#0B94C0"/>
<line x1="239.069" y1="211" x2="239.069" y2="51" stroke="#0B94C0"/>
<line x1="138.069" y1="211" x2="138.069" y2="51" stroke="#0B94C0"/>
<line x1="259.5" y1="211" x2="259.5" y2="51" stroke="#0B94C0"/>
<line x1="361.069" y1="211" x2="361.069" y2="51" stroke="#0B94C0"/>
<line x1="280.069" y1="211" x2="280.069" y2="51" stroke="#0B94C0"/>
<line x1="381.069" y1="211" x2="381.069" y2="51" stroke="#0B94C0"/>
<line x1="300.069" y1="211" x2="300.069" y2="51" stroke="#0B94C0"/>
<line x1="401.069" y1="211" x2="401.069" y2="51" stroke="#0B94C0"/>
<line x1="320.069" y1="211" x2="320.069" y2="51" stroke="#0B94C0"/>
<line x1="422.069" y1="211" x2="422.069" y2="51" stroke="#0B94C0"/>
<line x1="442.069" y1="211" x2="442.069" y2="51" stroke="#0B94C0"/>
<line x1="341.069" y1="211" x2="341.069" y2="51" stroke="#0B94C0"/>
<line x1="442.001" y1="50.5" x2="33.0024" y2="51.4903" stroke="#0B94C0"/>
<line x1="442.001" y1="70.5" x2="33.0024" y2="71.4903" stroke="#0B94C0"/>
<line x1="442.001" y1="90.5" x2="33.0024" y2="91.4903" stroke="#0B94C0"/>
<line x1="442.001" y1="110.5" x2="33.0024" y2="111.49" stroke="#0B94C0"/>
<line x1="442.001" y1="130.5" x2="33.0024" y2="131.49" stroke="#0B94C0"/>
<line x1="442.001" y1="150.5" x2="33.0024" y2="151.49" stroke="#0B94C0"/>
<line x1="442.001" y1="170.5" x2="33.0024" y2="171.49" stroke="#0B94C0"/>
<line x1="442.001" y1="190.5" x2="33.0024" y2="191.49" stroke="#0B94C0"/>
<path d="M505.895 226.949L508.707 222.32H511.238L507.09 228.59L511.367 235H508.859L505.93 230.254L503 235H500.48L504.758 228.59L500.609 222.32H503.117L505.895 226.949Z" fill="#0B94C0"/>
<path d="M135.721 368.594H143.139V370.363H133.072V368.77L140.068 359.477H133.178V357.684H142.787V359.219L135.721 368.594Z" fill="#0B94C0"/>
<path d="M5.78906 18.8242L8.74219 9.32031H11.0625L5.96484 23.957C5.17578 26.0664 3.92188 27.1211 2.20313 27.1211L1.79297 27.0859L0.984375 26.9336V25.1758L1.57031 25.2227C2.30469 25.2227 2.875 25.0742 3.28125 24.7773C3.69531 24.4805 4.03516 23.9375 4.30078 23.1484L4.78125 21.8594L0.257813 9.32031H2.625L5.78906 18.8242Z" fill="#0B94C0"/>
<path d="M458.045 67.8486C458.625 67.8486 459.132 67.6729 459.565 67.3213C459.999 66.9697 460.239 66.5303 460.286 66.0029H461.824C461.795 66.5479 461.607 67.0664 461.262 67.5586C460.916 68.0508 460.453 68.4434 459.873 68.7363C459.299 69.0293 458.689 69.1758 458.045 69.1758C456.75 69.1758 455.719 68.7451 454.951 67.8838C454.189 67.0166 453.809 65.833 453.809 64.333V64.0605C453.809 63.1348 453.979 62.3115 454.318 61.5908C454.658 60.8701 455.145 60.3105 455.777 59.9121C456.416 59.5137 457.169 59.3145 458.036 59.3145C459.103 59.3145 459.987 59.6338 460.69 60.2725C461.399 60.9111 461.777 61.7402 461.824 62.7598H460.286C460.239 62.1445 460.005 61.6406 459.583 61.248C459.167 60.8496 458.651 60.6504 458.036 60.6504C457.21 60.6504 456.568 60.9492 456.111 61.5469C455.66 62.1387 455.435 62.9971 455.435 64.1221V64.4297C455.435 65.5254 455.66 66.3691 456.111 66.9609C456.562 67.5527 457.207 67.8486 458.045 67.8486ZM469.523 69C469.43 68.8125 469.354 68.4785 469.295 67.998C468.539 68.7832 467.637 69.1758 466.588 69.1758C465.65 69.1758 464.88 68.9121 464.276 68.3848C463.679 67.8516 463.38 67.1777 463.38 66.3633C463.38 65.373 463.755 64.6055 464.505 64.0605C465.261 63.5098 466.321 63.2344 467.687 63.2344H469.269V62.4873C469.269 61.9189 469.099 61.4678 468.759 61.1338C468.419 60.7939 467.918 60.624 467.256 60.624C466.676 60.624 466.189 60.7705 465.797 61.0635C465.404 61.3564 465.208 61.7109 465.208 62.127H463.573C463.573 61.6523 463.74 61.1953 464.074 60.7559C464.414 60.3105 464.871 59.959 465.445 59.7012C466.025 59.4434 466.661 59.3145 467.353 59.3145C468.448 59.3145 469.307 59.5898 469.928 60.1406C470.549 60.6855 470.871 61.4385 470.895 62.3994V66.7764C470.895 67.6494 471.006 68.3438 471.229 68.8594V69H469.523ZM466.825 67.7607C467.335 67.7607 467.818 67.6289 468.275 67.3652C468.732 67.1016 469.063 66.7588 469.269 66.3369V64.3857H467.994C466.002 64.3857 465.006 64.9688 465.006 66.1348C465.006 66.6445 465.176 67.043 465.516 67.3301C465.855 67.6172 466.292 67.7607 466.825 67.7607ZM474.981 59.4902L475.034 60.6855C475.761 59.7715 476.71 59.3145 477.882 59.3145C479.892 59.3145 480.905 60.4482 480.923 62.7158V69H479.297V62.707C479.291 62.0215 479.133 61.5146 478.822 61.1865C478.518 60.8584 478.04 60.6943 477.39 60.6943C476.862 60.6943 476.399 60.835 476.001 61.1162C475.603 61.3975 475.292 61.7666 475.069 62.2236V69H473.443V59.4902H474.981ZM486.513 66.7939L488.868 59.4902H490.529L487.119 69H485.88L482.435 59.4902H484.096L486.513 66.7939ZM497.824 69C497.73 68.8125 497.654 68.4785 497.596 67.998C496.84 68.7832 495.938 69.1758 494.889 69.1758C493.951 69.1758 493.181 68.9121 492.577 68.3848C491.979 67.8516 491.681 67.1777 491.681 66.3633C491.681 65.373 492.056 64.6055 492.806 64.0605C493.562 63.5098 494.622 63.2344 495.987 63.2344H497.569V62.4873C497.569 61.9189 497.399 61.4678 497.06 61.1338C496.72 60.7939 496.219 60.624 495.557 60.624C494.977 60.624 494.49 60.7705 494.098 61.0635C493.705 61.3564 493.509 61.7109 493.509 62.127H491.874C491.874 61.6523 492.041 61.1953 492.375 60.7559C492.715 60.3105 493.172 59.959 493.746 59.7012C494.326 59.4434 494.962 59.3145 495.653 59.3145C496.749 59.3145 497.607 59.5898 498.229 60.1406C498.85 60.6855 499.172 61.4385 499.195 62.3994V66.7764C499.195 67.6494 499.307 68.3438 499.529 68.8594V69H497.824ZM495.126 67.7607C495.636 67.7607 496.119 67.6289 496.576 67.3652C497.033 67.1016 497.364 66.7588 497.569 66.3369V64.3857H496.295C494.303 64.3857 493.307 64.9688 493.307 66.1348C493.307 66.6445 493.477 67.043 493.816 67.3301C494.156 67.6172 494.593 67.7607 495.126 67.7607ZM507.281 66.4775C507.281 66.0381 507.114 65.6982 506.78 65.458C506.452 65.2119 505.875 65.001 505.049 64.8252C504.229 64.6494 503.575 64.4385 503.089 64.1924C502.608 63.9463 502.251 63.6533 502.017 63.3135C501.788 62.9736 501.674 62.5693 501.674 62.1006C501.674 61.3213 502.002 60.6621 502.658 60.123C503.32 59.584 504.164 59.3145 505.189 59.3145C506.268 59.3145 507.141 59.5928 507.809 60.1494C508.482 60.7061 508.819 61.418 508.819 62.2852H507.185C507.185 61.8398 506.994 61.4561 506.613 61.1338C506.238 60.8115 505.764 60.6504 505.189 60.6504C504.598 60.6504 504.135 60.7793 503.801 61.0371C503.467 61.2949 503.3 61.6318 503.3 62.0479C503.3 62.4404 503.455 62.7363 503.766 62.9355C504.076 63.1348 504.636 63.3252 505.444 63.5068C506.259 63.6885 506.918 63.9053 507.422 64.1572C507.926 64.4092 508.298 64.7139 508.538 65.0713C508.784 65.4229 508.907 65.8535 508.907 66.3633C508.907 67.2129 508.567 67.8955 507.888 68.4111C507.208 68.9209 506.326 69.1758 505.242 69.1758C504.48 69.1758 503.807 69.041 503.221 68.7715C502.635 68.502 502.175 68.127 501.841 67.6465C501.513 67.1602 501.349 66.6357 501.349 66.0732H502.975C503.004 66.6182 503.221 67.0518 503.625 67.374C504.035 67.6904 504.574 67.8486 505.242 67.8486C505.857 67.8486 506.35 67.7256 506.719 67.4795C507.094 67.2275 507.281 66.8936 507.281 66.4775Z" fill="#0B94C0"/>
<path d="M375 339H253V229H375V339Z" stroke="#94111E" stroke-width="4"/>
<path d="M375.5 230L333 149H213M213 149V264.5L252.5 338.5V230L213 149Z" stroke="#94111E" stroke-width="4"/>
<path d="M333 149V262" stroke="#94111E" stroke-width="4" stroke-dasharray="5 5"/>
<path d="M212.5 264H333L375.5 339" stroke="#94111E" stroke-width="4" stroke-dasharray="5 5"/>
</svg>
