<svg width="140" height="140" viewBox="0 0 140 140" fill="none" xmlns="http://www.w3.org/2000/svg">
<rect width="140" height="140" fill="white"/>
<path d="M17 113.768H28.753C30.8068 113.768 32.4716 112.103 32.4716 110.049C32.4716 107.996 34.1365 106.331 36.1902 106.331H45.2392C47.4484 106.331 49.2392 104.54 49.2392 102.331V97.1356C49.2392 95.2687 50.7527 93.7552 52.6196 93.7552C54.4865 93.7552 55.7325 92.2717 55.3153 90.452C54.7341 87.9168 53.6595 83.4578 51.6729 75.6356C47.3865 58.7579 22.4004 51.4339 13.256 74.9577C13.0857 75.3955 13 75.876 13 76.3458V109.768C13 111.977 14.7909 113.768 17 113.768Z" stroke="#444444" stroke-width="4" stroke-linecap="round" stroke-linejoin="round"/>
<path d="M37.5542 78.6016C40.8587 82.7261 44.6889 81.4196 46.191 80.2508" stroke="#444444" stroke-width="4" stroke-linecap="round"/>
<path d="M122 78.46H110.157C108.153 78.46 106.528 76.8356 106.528 74.8319C106.528 72.8281 104.904 71.2037 102.9 71.2037H93.7608C91.5516 71.2037 89.7608 69.4129 89.7608 67.2037V62.3145C89.7608 60.4476 88.2473 58.9341 86.3804 58.9341C84.5135 58.9341 83.2748 57.4528 83.7025 55.6355C84.2878 53.1493 85.3606 48.8099 87.3271 41.2553C91.6116 24.7952 116.578 17.6484 125.732 40.5643C125.911 41.0106 126 41.5014 126 41.982V74.46C126 76.6691 124.209 78.46 122 78.46Z" stroke="#444444" stroke-width="4" stroke-linecap="round" stroke-linejoin="round"/>
<path d="M101.446 44.1491C98.1413 48.1734 94.3111 46.8987 92.809 45.7583" stroke="#444444" stroke-width="4" stroke-linecap="round"/>
<path d="M69 113H105.746C113.679 113 112.427 96.5 110.756 95" stroke="#444444" stroke-width="4" stroke-linecap="round"/>
<path d="M111 91.5L104 96.5" stroke="#444444" stroke-width="4" stroke-linecap="round"/>
<path d="M112 92L119 97" stroke="#444444" stroke-width="4" stroke-linecap="round"/>
<path d="M74 27H37.2543C29.3206 27 30.5733 43.5464 32.2435 45.0507" stroke="#444444" stroke-width="4" stroke-linecap="round"/>
<path d="M32 48.569L39 43.569" stroke="#444444" stroke-width="4" stroke-linecap="round"/>
<path d="M31 48.0676L24 43.0676" stroke="#444444" stroke-width="4" stroke-linecap="round"/>
</svg>
